<svg width="36" height="36" viewBox="0 0 36 36" fill="none" xmlns="http://www.w3.org/2000/svg">
  <!-- 狐狸头部 -->
  <ellipse cx="18" cy="20" rx="12" ry="10" fill="#FF6B35"/>
  
  <!-- 狐狸耳朵 -->
  <ellipse cx="12" cy="12" rx="3" ry="6" fill="#FF6B35" transform="rotate(-25 12 12)"/>
  <ellipse cx="24" cy="12" rx="3" ry="6" fill="#FF6B35" transform="rotate(25 24 12)"/>
  
  <!-- 耳朵内侧 -->
  <ellipse cx="12.5" cy="13" rx="1.5" ry="3" fill="#FFB366" transform="rotate(-25 12.5 13)"/>
  <ellipse cx="23.5" cy="13" rx="1.5" ry="3" fill="#FFB366" transform="rotate(25 23.5 13)"/>
  
  <!-- 脸部白色区域 -->
  <ellipse cx="18" cy="22" rx="8" ry="6" fill="#FFFFFF"/>
  
  <!-- 眼睛 -->
  <circle cx="15" cy="19" r="2" fill="#2D3748"/>
  <circle cx="21" cy="19" r="2" fill="#2D3748"/>
  
  <!-- 眼睛高光 -->
  <circle cx="15.5" cy="18.5" r="0.8" fill="#FFFFFF"/>
  <circle cx="21.5" cy="18.5" r="0.8" fill="#FFFFFF"/>
  
  <!-- 鼻子 -->
  <ellipse cx="18" cy="23" rx="1" ry="0.8" fill="#2D3748"/>
  
  <!-- 嘴巴 -->
  <path d="M18 24 Q16 25 15 24" stroke="#2D3748" stroke-width="1" fill="none" stroke-linecap="round"/>
  <path d="M18 24 Q20 25 21 24" stroke="#2D3748" stroke-width="1" fill="none" stroke-linecap="round"/>
  
  <!-- 脸颊腮红 -->
  <circle cx="11" cy="21" r="1.5" fill="#FF9999" opacity="0.6"/>
  <circle cx="25" cy="21" r="1.5" fill="#FF9999" opacity="0.6"/>
</svg>
